<svg viewBox="0 0 72 16" xmlns="http://www.w3.org/2000/svg" class="logo">
    <style>
        .logo:hover .logo-text{fill:#0066f3}
        .logo-text {transition:.1s ease-in-out; fill:#212529}
    </style>
    <path fill="#1a7aff" d="M15.02 9.528c0 .747-.466 1.316-1.23 1.383-1.195.107-2.113.573-2.572 1.735-.151.381-.133.786-.216 1.174-.161.8-.714 1.23-1.524 1.184a1.377 1.377 0 01-1.327-1.362c-.04-1.397-1.159-2.547-2.565-2.638-1.087-.057-1.722-.924-1.457-1.824a1.44 1.44 0 011.518-1.063A1.423 1.423 0 016.96 9.411c.05.523.122 1.031.412 1.479.606.935 1.758 1.429 2.734 1.173a2.606 2.606 0 002.033-2.414c.036-.611.208-1.137.804-1.422 1.022-.498 2.084.171 2.08 1.301h-.003zM.044 5.539c0-.803.477-1.354 1.291-1.425 1.126-.096 1.998-.544 2.464-1.618.158-.356.18-.743.226-1.124.094-.764.564-1.258 1.22-1.329.76-.078 1.338.249 1.568.903.068.192.086.402.107.604.194 1.501 1.112 2.375 2.619 2.485.854.061 1.431.651 1.431 1.465a1.443 1.443 0 01-1.291 1.412C8.89 6.99 8.255 6.499 8.1 5.667c-.104-.579-.147-1.159-.531-1.664a2.525 2.525 0 00-2.837-.952 2.572 2.572 0 00-1.804 2.257 3.335 3.335 0 01-.09.612 1.415 1.415 0 01-1.593 1.052A1.406 1.406 0 01.044 5.539z"/>
    <path fill="#71acfd" d="M6.999 13.577c0 .74-.586 1.364-1.338 1.425a1.431 1.431 0 01-1.522-1.106c-.057-.227-.057-.468-.097-.699-.224-1.251-1.153-2.066-2.48-2.176-.904-.075-1.489-.567-1.554-1.305-.083-.9.506-1.538 1.5-1.616 1.207-.096 2.133-.826 2.411-1.921.079-.312.076-.642.141-.961a1.437 1.437 0 011.435-1.17 1.496 1.496 0 011.402 1.113c.228.89-.43 1.713-1.431 1.787-1.233.096-2.136.79-2.447 1.886a2.516 2.516 0 00-.101.706c0 1.334 1.059 2.457 2.414 2.562.181.018.362.021.535.06.67.149 1.145.745 1.132 1.418v-.003zm8.024-8.167c.011.847-.419 1.347-1.272 1.467-.517.071-1.045.096-1.497.408a2.607 2.607 0 00-1.2 2.073c-.061.922-.488 1.425-1.25 1.553-.759.125-1.493-.37-1.645-1.109C8 9.007 8.495 8.224 9.28 8.1c.668-.106 1.337-.167 1.886-.62a2.57 2.57 0 00.861-2.79 2.587 2.587 0 00-2.335-1.797c-.506-.029-.944-.146-1.28-.539A1.433 1.433 0 018.267.699c.326-.546.857-.78 1.533-.674.578.096 1.012.521 1.131 1.117.051.248.055.499.105.744.2 1.079 1.09 1.914 2.198 2.063.148.021.3.036.448.05.842.081 1.327.592 1.338 1.411h.003z"/>
   
</svg>
